<svg width="302" height="314" viewBox="0 0 302 314" fill="none" xmlns="http://www.w3.org/2000/svg">
<g filter="url(#filter0_d)">
<rect x="1" width="300" height="312" fill="white"/>
</g>
<mask id="mask0" mask-type="alpha" maskUnits="userSpaceOnUse" x="1" y="0" width="300" height="312">
<rect x="1" width="300" height="312" fill="white"/>
</mask>
<g mask="url(#mask0)">
<rect x="1" width="300" height="312" fill="#84E6F1"/>
<path d="M127.158 114.16C128.662 114.16 129.894 114.112 130.854 114.016V114.976C130.054 115.296 129.27 115.92 128.502 116.848C127.766 117.744 127.142 119.024 126.63 120.688L118.182 148.096C117.83 148.064 117.27 148.048 116.502 148.048C115.734 148.048 115.174 148.064 114.822 148.096L107.766 126.688L100.662 148.096C100.31 148.064 99.7496 148.048 98.9816 148.048C98.2136 148.048 97.6536 148.064 97.3016 148.096L86.5496 118.048C86.1656 116.992 85.7016 116.224 85.1576 115.744C84.6136 115.264 84.0696 115.008 83.5256 114.976V114.016C85.4456 114.112 87.8296 114.16 90.6776 114.16C93.3656 114.16 95.3336 114.112 96.5816 114.016V114.976C95.4616 115.136 94.9016 115.76 94.9016 116.848C94.9016 117.36 95.0456 118.08 95.3336 119.008L102.342 139.312L107.19 125.008L104.742 117.568C104.422 116.64 104.038 116 103.59 115.648C103.174 115.264 102.678 115.04 102.102 114.976V114.016C103.894 114.112 106.182 114.16 108.966 114.16C112.102 114.16 114.406 114.112 115.878 114.016V114.976C114.726 115.008 113.894 115.152 113.382 115.408C112.87 115.632 112.614 116.08 112.614 116.752C112.614 117.328 112.774 118.08 113.094 119.008L119.67 139.072L124.23 124.576C124.966 122.176 125.334 120.32 125.334 119.008C125.334 117.632 124.982 116.64 124.278 116.032C123.606 115.392 122.582 115.04 121.206 114.976V114.016C123.382 114.112 125.366 114.16 127.158 114.16ZM151.329 113.344C154.721 113.344 157.681 114.032 160.209 115.408C162.769 116.784 164.753 118.784 166.161 121.408C167.569 124 168.273 127.104 168.273 130.72C168.273 134.24 167.553 137.36 166.113 140.08C164.673 142.8 162.657 144.912 160.065 146.416C157.505 147.92 154.577 148.672 151.281 148.672C147.889 148.672 144.913 147.984 142.353 146.608C139.825 145.232 137.857 143.248 136.449 140.656C135.041 138.032 134.337 134.912 134.337 131.296C134.337 127.776 135.057 124.656 136.497 121.936C137.937 119.216 139.937 117.104 142.497 115.6C145.089 114.096 148.033 113.344 151.329 113.344ZM151.137 114.208C149.377 114.208 147.825 114.928 146.481 116.368C145.137 117.776 144.097 119.76 143.361 122.32C142.657 124.88 142.305 127.808 142.305 131.104C142.305 134.432 142.705 137.36 143.505 139.888C144.337 142.416 145.441 144.368 146.817 145.744C148.225 147.12 149.777 147.808 151.473 147.808C153.233 147.808 154.785 147.104 156.129 145.696C157.473 144.256 158.497 142.256 159.201 139.696C159.937 137.136 160.305 134.208 160.305 130.912C160.305 127.584 159.889 124.656 159.057 122.128C158.257 119.6 157.153 117.648 155.745 116.272C154.369 114.896 152.833 114.208 151.137 114.208ZM214.501 114.16C216.005 114.16 217.237 114.112 218.197 114.016V114.976C217.397 115.296 216.613 115.92 215.845 116.848C215.109 117.744 214.485 119.024 213.973 120.688L205.525 148.096C205.173 148.064 204.613 148.048 203.845 148.048C203.077 148.048 202.517 148.064 202.165 148.096L195.109 126.688L188.005 148.096C187.653 148.064 187.093 148.048 186.325 148.048C185.557 148.048 184.997 148.064 184.645 148.096L173.893 118.048C173.509 116.992 173.045 116.224 172.501 115.744C171.957 115.264 171.413 115.008 170.869 114.976V114.016C172.789 114.112 175.173 114.16 178.021 114.16C180.709 114.16 182.677 114.112 183.925 114.016V114.976C182.805 115.136 182.245 115.76 182.245 116.848C182.245 117.36 182.389 118.08 182.677 119.008L189.685 139.312L194.533 125.008L192.085 117.568C191.765 116.64 191.381 116 190.933 115.648C190.517 115.264 190.021 115.04 189.445 114.976V114.016C191.237 114.112 193.525 114.16 196.309 114.16C199.445 114.16 201.749 114.112 203.221 114.016V114.976C202.069 115.008 201.237 115.152 200.725 115.408C200.213 115.632 199.957 116.08 199.957 116.752C199.957 117.328 200.117 118.08 200.437 119.008L207.013 139.072L211.573 124.576C212.309 122.176 212.677 120.32 212.677 119.008C212.677 117.632 212.325 116.64 211.621 116.032C210.949 115.392 209.925 115.04 208.549 114.976V114.016C210.725 114.112 212.709 114.16 214.501 114.16Z" fill="#2E2E2E"/>
<path d="M119.251 201.288C117.539 201.288 115.987 200.92 114.595 200.184C113.219 199.432 112.131 198.4 111.331 197.088C110.547 195.76 110.155 194.264 110.155 192.6C110.155 190.936 110.547 189.448 111.331 188.136C112.131 186.808 113.219 185.776 114.595 185.04C115.987 184.288 117.547 183.912 119.275 183.912C120.731 183.912 122.043 184.168 123.211 184.68C124.395 185.192 125.387 185.928 126.187 186.888L123.691 189.192C122.555 187.88 121.147 187.224 119.467 187.224C118.427 187.224 117.499 187.456 116.683 187.92C115.867 188.368 115.227 189 114.763 189.816C114.315 190.632 114.091 191.56 114.091 192.6C114.091 193.64 114.315 194.568 114.763 195.384C115.227 196.2 115.867 196.84 116.683 197.304C117.499 197.752 118.427 197.976 119.467 197.976C121.147 197.976 122.555 197.312 123.691 195.984L126.187 198.288C125.387 199.264 124.395 200.008 123.211 200.52C122.027 201.032 120.707 201.288 119.251 201.288ZM137.428 187.896C139.028 187.896 140.316 188.376 141.292 189.336C142.284 190.296 142.78 191.72 142.78 193.608V201H139.036V194.184C139.036 193.16 138.812 192.4 138.364 191.904C137.916 191.392 137.268 191.136 136.42 191.136C135.476 191.136 134.724 191.432 134.164 192.024C133.604 192.6 133.324 193.464 133.324 194.616V201H129.58V183.192H133.324V189.432C133.82 188.936 134.42 188.56 135.124 188.304C135.828 188.032 136.596 187.896 137.428 187.896ZM159.993 194.592C159.993 194.64 159.969 194.976 159.921 195.6H150.153C150.329 196.4 150.745 197.032 151.401 197.496C152.057 197.96 152.873 198.192 153.849 198.192C154.521 198.192 155.113 198.096 155.625 197.904C156.153 197.696 156.641 197.376 157.089 196.944L159.081 199.104C157.865 200.496 156.089 201.192 153.753 201.192C152.297 201.192 151.009 200.912 149.889 200.352C148.769 199.776 147.905 198.984 147.297 197.976C146.689 196.968 146.385 195.824 146.385 194.544C146.385 193.28 146.681 192.144 147.273 191.136C147.881 190.112 148.705 189.32 149.745 188.76C150.801 188.184 151.977 187.896 153.273 187.896C154.537 187.896 155.681 188.168 156.705 188.712C157.729 189.256 158.529 190.04 159.105 191.064C159.697 192.072 159.993 193.248 159.993 194.592ZM153.297 190.728C152.449 190.728 151.737 190.968 151.161 191.448C150.585 191.928 150.233 192.584 150.105 193.416H156.465C156.337 192.6 155.985 191.952 155.409 191.472C154.833 190.976 154.129 190.728 153.297 190.728ZM169.757 201.192C168.381 201.192 167.141 200.912 166.037 200.352C164.949 199.776 164.093 198.984 163.469 197.976C162.861 196.968 162.557 195.824 162.557 194.544C162.557 193.264 162.861 192.12 163.469 191.112C164.093 190.104 164.949 189.32 166.037 188.76C167.141 188.184 168.381 187.896 169.757 187.896C171.117 187.896 172.301 188.184 173.309 188.76C174.333 189.32 175.077 190.128 175.541 191.184L172.637 192.744C171.965 191.56 170.997 190.968 169.733 190.968C168.757 190.968 167.949 191.288 167.309 191.928C166.669 192.568 166.349 193.44 166.349 194.544C166.349 195.648 166.669 196.52 167.309 197.16C167.949 197.8 168.757 198.12 169.733 198.12C171.013 198.12 171.981 197.528 172.637 196.344L175.541 197.928C175.077 198.952 174.333 199.752 173.309 200.328C172.301 200.904 171.117 201.192 169.757 201.192ZM184.178 195.936L182.378 197.712V201H178.634V183.192H182.378V193.272L187.85 188.088H192.314L186.938 193.56L192.794 201H188.258L184.178 195.936ZM133.462 220.2L127.966 237H123.79L120.094 225.624L116.278 237H112.126L106.606 220.2H110.638L114.43 232.008L118.39 220.2H121.99L125.83 232.104L129.742 220.2H133.462ZM152.072 220.2V237H148.184V230.112H140.552V237H136.664V220.2H140.552V226.824H148.184V220.2H152.072ZM168.142 233.4H160.342L158.854 237H154.87L162.358 220.2H166.198L173.71 237H169.63L168.142 233.4ZM166.918 230.448L164.254 224.016L161.59 230.448H166.918ZM179.12 223.368H173.744V220.2H188.384V223.368H183.008V237H179.12V223.368ZM191.232 220.2H195.696L194.952 231.168H191.976L191.232 220.2ZM193.464 237.192C192.808 237.192 192.256 236.984 191.808 236.568C191.376 236.136 191.16 235.616 191.16 235.008C191.16 234.4 191.376 233.896 191.808 233.496C192.24 233.08 192.792 232.872 193.464 232.872C194.136 232.872 194.688 233.08 195.12 233.496C195.552 233.896 195.768 234.4 195.768 235.008C195.768 235.616 195.544 236.136 195.096 236.568C194.664 236.984 194.12 237.192 193.464 237.192Z" fill="#F62F5E"/>
</g>
<defs>
<filter id="filter0_d" x="0" y="0" width="302" height="314" filterUnits="userSpaceOnUse" color-interpolation-filters="sRGB">
<feFlood flood-opacity="0" result="BackgroundImageFix"/>
<feColorMatrix in="SourceAlpha" type="matrix" values="0 0 0 0 0 0 0 0 0 0 0 0 0 0 0 0 0 0 127 0"/>
<feOffset dy="1"/>
<feGaussianBlur stdDeviation="0.5"/>
<feColorMatrix type="matrix" values="0 0 0 0 0 0 0 0 0 0 0 0 0 0 0 0 0 0 0.197803 0"/>
<feBlend mode="normal" in2="BackgroundImageFix" result="effect1_dropShadow"/>
<feBlend mode="normal" in="SourceGraphic" in2="effect1_dropShadow" result="shape"/>
</filter>
</defs>
</svg>
